<mxfile host="app.diagrams.net" agent="Mozilla/5.0 (X11; Ubuntu; Linux x86_64; rv:134.0) Gecko/20100101 Firefox/134.0" version="24.7.12">
  <diagram name="Page-1" id="KV11C1aKXjrcKB5AIHHk">
    <mxGraphModel dx="683" dy="378" grid="1" gridSize="10" guides="1" tooltips="1" connect="1" arrows="1" fold="1" page="1" pageScale="1" pageWidth="850" pageHeight="1100" math="0" shadow="0">
      <root>
        <mxCell id="0" />
        <mxCell id="1" parent="0" />
        <mxCell id="OmvKtOAUUn4-qeMX4sx8-2" value="ARM CPU" style="rounded=0;whiteSpace=wrap;html=1;" vertex="1" parent="1">
          <mxGeometry x="280" y="320" width="80" height="80" as="geometry" />
        </mxCell>
        <mxCell id="OmvKtOAUUn4-qeMX4sx8-3" value="&lt;div&gt;Memory Interface&lt;/div&gt;&lt;div&gt;(dataset)&lt;br&gt;&lt;/div&gt;" style="rounded=0;whiteSpace=wrap;html=1;" vertex="1" parent="1">
          <mxGeometry x="280" y="210" width="80" height="80" as="geometry" />
        </mxCell>
        <mxCell id="OmvKtOAUUn4-qeMX4sx8-4" value="&lt;div&gt;Programmable Logic&amp;nbsp;&lt;/div&gt;&lt;div&gt;(ModNEF network)&lt;/div&gt;" style="rounded=0;whiteSpace=wrap;html=1;" vertex="1" parent="1">
          <mxGeometry x="400" y="200" width="220" height="200" as="geometry" />
        </mxCell>
        <mxCell id="OmvKtOAUUn4-qeMX4sx8-5" value="IO" style="rounded=0;whiteSpace=wrap;html=1;" vertex="1" parent="1">
          <mxGeometry x="200" y="320" width="50" height="80" as="geometry" />
        </mxCell>
        <mxCell id="OmvKtOAUUn4-qeMX4sx8-7" value="" style="endArrow=classic;html=1;rounded=0;" edge="1" parent="1">
          <mxGeometry width="50" height="50" relative="1" as="geometry">
            <mxPoint x="340" y="320" as="sourcePoint" />
            <mxPoint x="340" y="290" as="targetPoint" />
          </mxGeometry>
        </mxCell>
        <mxCell id="OmvKtOAUUn4-qeMX4sx8-8" value="" style="endArrow=classic;html=1;rounded=0;" edge="1" parent="1">
          <mxGeometry width="50" height="50" relative="1" as="geometry">
            <mxPoint x="300" y="290" as="sourcePoint" />
            <mxPoint x="300" y="320" as="targetPoint" />
          </mxGeometry>
        </mxCell>
        <mxCell id="OmvKtOAUUn4-qeMX4sx8-9" value="" style="endArrow=classic;html=1;rounded=0;" edge="1" parent="1">
          <mxGeometry width="50" height="50" relative="1" as="geometry">
            <mxPoint x="280" y="350" as="sourcePoint" />
            <mxPoint x="250" y="350" as="targetPoint" />
          </mxGeometry>
        </mxCell>
        <mxCell id="OmvKtOAUUn4-qeMX4sx8-10" value="" style="endArrow=classic;html=1;rounded=0;" edge="1" parent="1">
          <mxGeometry width="50" height="50" relative="1" as="geometry">
            <mxPoint x="250" y="370" as="sourcePoint" />
            <mxPoint x="280" y="370" as="targetPoint" />
          </mxGeometry>
        </mxCell>
        <mxCell id="OmvKtOAUUn4-qeMX4sx8-11" value="" style="endArrow=classic;html=1;rounded=0;exitX=-0.01;exitY=0.849;exitDx=0;exitDy=0;exitPerimeter=0;" edge="1" parent="1" source="OmvKtOAUUn4-qeMX4sx8-4">
          <mxGeometry width="50" height="50" relative="1" as="geometry">
            <mxPoint x="390" y="370" as="sourcePoint" />
            <mxPoint x="360" y="370" as="targetPoint" />
          </mxGeometry>
        </mxCell>
        <mxCell id="OmvKtOAUUn4-qeMX4sx8-12" value="" style="endArrow=classic;html=1;rounded=0;entryX=0;entryY=0.75;entryDx=0;entryDy=0;" edge="1" parent="1" target="OmvKtOAUUn4-qeMX4sx8-4">
          <mxGeometry width="50" height="50" relative="1" as="geometry">
            <mxPoint x="360" y="350" as="sourcePoint" />
            <mxPoint x="390" y="350" as="targetPoint" />
          </mxGeometry>
        </mxCell>
        <mxCell id="OmvKtOAUUn4-qeMX4sx8-14" value="Zynq Architecture" style="text;html=1;align=center;verticalAlign=middle;whiteSpace=wrap;rounded=0;" vertex="1" parent="1">
          <mxGeometry x="200" y="235" width="60" height="30" as="geometry" />
        </mxCell>
      </root>
    </mxGraphModel>
  </diagram>
</mxfile>
